:SAMPLES-PER-SECOND 30
:FULLY-SPECIFIED
:DEGREES
16
root  -5.25866 40.9241 0.443502 -175.363 -89.7551 174.763
RightUpLeg  4.15076 -2.19779 -2.28946
RightLeg  -1.86992 -24.011 0.853021
RightFoot  -0.094236 -0.374958 3.75434
RightToes  -3.11842e-008 1.75238e-005 3.56266e-009
Spine  -2.38732 -0.0128913 0.132511
Spine1  4.23125 0.180332 -0.937027
HEad  -2.75199 -2.25013 3.12957
LeftShoulder1  0.11775 2.22168 -0.825154
LeftArm  -51.9133 -4.43144 3.56762
LeftForeArm  52.8681 4.1884 6.40253
LeftHand  -0.202982 -0.412884 4.13705
RightShoulder  0.285049 -0.885072 2.7993
RightArm  -42.5845 2.57621 -1.68637
RightForeArm  32.4422 -1.36595 0.693874
RightHand  0.146601 3.27008 1.72517
LeftUpLeg  4.45494 1.0601 2.06605
LeftLeg  -2.16961 17.9766 -0.630035
LeftFoot  -0.492141 0.238598 -2.42153
LeftToes  4.78904e-008 1.4679e-008 1.35657e-009
17
root  -5.24087 40.9252 0.442122 -174.923 -89.7888 174.249
RightUpLeg  4.22449 -2.19858 -2.28652
RightLeg  -1.90604 -24.0346 0.865928
RightFoot  -0.0815811 -0.372138 3.71056
RightToes  -3.11842e-008 1.75238e-005 3.56266e-009
Spine  -2.21943 -0.00708201 0.127213
Spine1  4.22102 0.182636 -0.923642
HEad  -2.61144 -2.32436 3.14732
LeftShoulder1  0.140098 2.01172 -1.05685
LeftArm  -51.7269 -4.22778 3.48569
LeftForeArm  53.003 4.20039 6.31289
LeftHand  -0.20621 -0.351216 4.23966
RightShoulder  0.302254 -0.780953 3.04147
RightArm  -42.5656 2.37928 -1.44551
RightForeArm  32.2507 -1.27932 0.656808
RightHand  0.119437 2.71743 1.50209
LeftUpLeg  4.48372 1.07417 2.07759
LeftLeg  -2.12903 17.9149 -0.617109
LeftFoot  -0.483046 0.243705 -2.50097
LeftToes  4.78904e-008 1.4679e-008 1.35657e-009
18
root  -5.22234 40.9264 0.442698 -165.818 -89.7572 165.156
RightUpLeg  4.1492 -2.22747 -2.34065
RightLeg  -1.84336 -23.9808 0.839512
RightFoot  -0.0717982 -0.371867 3.70636
RightToes  -3.11842e-008 1.75238e-005 3.56266e-009
Spine  -2.14762 0.0176624 0.108495
Spine1  4.2324 0.206934 -0.904512
HEad  -2.63902 -2.28107 3.30161
LeftShoulder1  0.167465 1.7542 -1.26973
LeftArm  -51.3747 -3.87176 3.28347
LeftForeArm  52.7596 4.25132 6.06542
LeftHand  -0.225145 -0.846703 4.30612
RightShoulder  0.332371 -0.577814 3.34165
RightArm  -42.4706 2.11709 -1.27599
RightForeArm  31.7186 -1.16602 0.710528
RightHand  0.120863 2.69942 1.52036
LeftUpLeg  4.46807 1.03446 2.01606
LeftLeg  -2.18141 17.9969 -0.634901
LeftFoot  -0.429064 0.238792 -2.42454
LeftToes  4.78904e-008 1.4679e-008 1.35657e-009
19
root  -5.20541 40.9274 0.444051 -173.353 -89.7399 172.707
RightUpLeg  4.12926 -2.2027 -2.30636
RightLeg  -1.91078 -23.9959 0.872836
RightFoot  -0.0540976 -0.36877 3.65829
RightToes  -3.11842e-008 1.75238e-005 3.56266e-009
Spine  -2.08526 0.0473837 0.0527711
Spine1  4.2909 0.212605 -0.781596
HEad  -2.82642 -2.11776 3.34562
LeftShoulder1  0.175509 1.70802 -1.49557
LeftArm  -51.0371 -3.70746 2.87629
LeftForeArm  52.4499 4.30444 5.8155
LeftHand  -0.225357 -1.02142 4.21038
RightShoulder  0.344256 -0.525554 3.5649
RightArm  -42.6572 2.08195 -0.930919
RightForeArm  32.2747 -1.40007 0.456975
RightHand  0.158051 3.73511 1.75345
LeftUpLeg  4.41586 1.10406 2.08207
LeftLeg  -2.15157 17.9403 -0.684052
LeftFoot  -0.452345 0.237823 -2.40948
LeftToes  4.78904e-008 1.4679e-008 1.35657e-009
20
root  -5.19362 40.9284 0.444987 -176.143 -89.8327 175.5
RightUpLeg  4.179 -2.23193 -2.2985
RightLeg  -2.0419 -24.08 0.981292
RightFoot  -0.00475306 -0.365622 3.60944
RightToes  -3.11842e-008 1.75238e-005 3.56266e-009
Spine  -1.97486 -0.0142609 0.0679928
Spine1  4.23763 0.149448 -0.790651
HEad  -2.83123 -2.03534 3.32297
LeftShoulder1  0.187894 1.61504 -1.69458
LeftArm  -50.767 -3.59195 2.60071
LeftForeArm  52.0123 4.34989 5.62888
LeftHand  -0.195605 -0.287531 4.07521
RightShoulder  0.371356 -0.35645 3.84108
RightArm  -42.5753 1.92281 -0.681235
RightForeArm  32.6192 -1.5474 0.407294
RightHand  0.197223 4.08574 2.14374
LeftUpLeg  4.37809 1.114 2.11689
LeftLeg  -2.1454 17.8378 -0.672605
LeftFoot  -0.428476 0.239799 -2.44022
LeftToes  4.78904e-008 1.4679e-008 1.35657e-009
21
root  -5.17762 40.93 0.444687 -0.574983 -90 0
RightUpLeg  4.06769 -2.24146 -2.32397
RightLeg  -1.9888 -24.1524 0.966969
RightFoot  0.0185834 -0.37121 3.69617
RightToes  -3.11842e-008 1.75238e-005 3.56266e-009
Spine  -1.99561 -0.0390761 -0.0123088
Spine1  4.28758 0.115345 -0.716125
HEad  -3.07851 -1.99638 3.40018
LeftShoulder1  0.192069 1.60376 -1.87654
LeftArm  -51.2632 -3.85203 1.96648
LeftForeArm  53.7366 4.18776 6.26316
LeftHand  -0.187491 -0.812585 3.61729
RightShoulder  0.374814 -0.366912 4.0119
RightArm  -42.7567 1.81076 -0.00667701
RightForeArm  32.7644 -1.33082 0.208486
RightHand  0.210458 4.06567 2.31109
LeftUpLeg  4.29854 1.0901 2.10218
LeftLeg  -2.21976 17.7616 -0.709882
LeftFoot  -0.355775 0.236823 -2.39392
LeftToes  4.78904e-008 1.4679e-008 1.35657e-009
22
root  -5.15786 40.9324 0.440906 -151.544 -89.9123 151.086
RightUpLeg  3.93074 -2.23667 -2.32195
RightLeg  -2.054 -24.1719 1.01342
RightFoot  0.0725157 -0.364861 3.59763
RightToes  -3.11842e-008 1.75238e-005 3.56266e-009
Spine  -1.99719 0.00633846 -0.061025
Spine1  4.22374 0.150119 -0.654712
HEad  -3.53356 -1.97014 3.37496
LeftShoulder1  0.187644 1.63447 -1.79793
LeftArm  -51.1383 -3.69842 0.465547
LeftForeArm  55.2129 4.1113 6.47915
LeftHand  -0.221572 -0.843695 4.22286
RightShoulder  0.374729 -0.42752 4.27531
RightArm  -42.9301 1.53806 0.909191
RightForeArm  32.024 -0.521841 0.13543
RightHand  0.174693 3.44377 2.05926
LeftUpLeg  4.14398 1.06 2.09159
LeftLeg  -2.24742 17.8146 -0.719797
LeftFoot  -0.2845 0.236203 -2.38428
LeftToes  4.78904e-008 1.4679e-008 1.35657e-009
23
root  -5.14353 40.934 0.434003 -0.282196 -90 0
RightUpLeg  3.73413 -2.20625 -2.28776
RightLeg  -2.05903 -24.3044 1.02683
RightFoot  0.0973874 -0.368251 3.65025
RightToes  -3.11842e-008 1.75238e-005 3.56266e-009
Spine  -2.06692 0.0436505 -0.160844
Spine1  4.18911 0.152628 -0.463843
HEad  -3.80267 -1.99973 3.15071
LeftShoulder1  0.197259 1.55278 -1.87981
LeftArm  -50.4513 -2.88436 -1.65492
LeftForeArm  56.6967 4.11781 6.31473
LeftHand  -0.299463 -1.4555 5.30015
RightShoulder  0.402675 -0.35929 4.99101
RightArm  -42.6935 0.632448 1.76777
RightForeArm  29.0967 1.32252 0.620962
RightHand  0.0766631 3.51178 0.745209
LeftUpLeg  3.94338 0.999266 2.10594
LeftLeg  -2.3155 17.7615 -0.714669
LeftFoot  -0.202406 0.23468 -2.36059
LeftToes  4.78904e-008 1.4679e-008 1.35657e-009
24
root  -5.13002 40.9347 0.434303 -47.5509 -89.8155 47.3802
RightUpLeg  3.53628 -2.2672 -2.40788
RightLeg  -1.90166 -24.3386 0.980444
RightFoot  0.0573551 -0.368754 3.65805
RightToes  -3.11842e-008 1.75238e-005 3.56266e-009
Spine  -2.10369 -0.0770721 -0.471276
Spine1  4.33289 -0.00555846 -0.190276
HEad  -4.12016 -1.67753 2.81129
LeftShoulder1  0.221757 1.43829 -2.58454
LeftArm  -48.7244 -1.16944 -3.3057
LeftForeArm  56.2021 3.34278 5.0465
LeftHand  -0.348783 0.012414 7.57722
RightShoulder  0.430619 -0.296795 5.70046
RightArm  -43.0692 -0.0509243 3.54321
RightForeArm  23.5511 3.54224 0.877796
RightHand  0.0213276 3.35222 0.0455782
LeftUpLeg  3.85813 0.907949 1.9796
LeftLeg  -2.47209 17.7752 -0.760769
LeftFoot  -0.0914131 0.234021 -2.35035
LeftToes  4.78904e-008 1.4679e-008 1.35657e-009
25
root  -5.11609 40.9366 0.434305 -40.7736 -89.7873 40.6627
RightUpLeg  3.49158 -2.27245 -2.42486
RightLeg  -1.99626 -24.3805 1.03769
RightFoot  0.0924438 -0.366682 3.6259
RightToes  -3.11842e-008 1.75238e-005 3.56266e-009
Spine  -1.88602 -0.174055 -0.417104
Spine1  4.08955 -0.119244 -0.337761
HEad  -4.12038 -1.32295 2.68501
LeftShoulder1  0.272289 1.13972 -3.46328
LeftArm  -46.1767 0.788728 -4.68222
LeftForeArm  55.9165 0.346556 2.78143
LeftHand  -0.387041 0.240081 8.66912
RightShoulder  0.493323 -0.0365125 6.58197
RightArm  -43.9644 -0.666632 5.8496
RightForeArm  19.6795 5.32879 0.548445
RightHand  -0.0194208 3.56144 -0.504332
LeftUpLeg  3.8081 0.921604 1.98538
LeftLeg  -2.55321 17.7359 -0.815423
LeftFoot  -0.0204684 0.235895 -2.37948
LeftToes  4.78904e-008 1.4679e-008 1.35657e-009
26
root  -5.10977 40.9387 0.432555 -40.1579 -89.8129 40.1088
RightUpLeg  3.43332 -2.26075 -2.40631
RightLeg  -2.04917 -24.3839 1.07456
RightFoot  0.15247 -0.363114 3.57052
RightToes  -3.11842e-008 1.75238e-005 3.56266e-009
Spine  -1.83046 -0.146908 -0.102868
Spine1  4.07405 -0.103251 -0.823765
HEad  -4.1494 -1.14142 2.81778
LeftShoulder1  0.333718 0.854714 -4.71383
LeftArm  -44.7126 1.41454 -5.86924
LeftForeArm  56.2694 -0.371384 1.68481
LeftHand  -0.533035 -0.916356 9.98421
RightShoulder  0.614899 0.431155 8.18194
RightArm  -43.8474 -1.38127 7.0009
RightForeArm  17.1846 5.98553 0.692875
RightHand  0.00290864 3.67438 -0.221052
LeftUpLeg  3.7976 0.929695 2.01231
LeftLeg  -2.70383 17.7421 -0.873889
LeftFoot  0.0710449 0.234117 -2.35184
LeftToes  4.78904e-008 1.4679e-008 1.35657e-009
27
root  -5.10374 40.94 0.428153 -34.7663 -89.8215 34.7847
RightUpLeg  3.43444 -2.23487 -2.38135
RightLeg  -2.24014 -24.3981 1.16803
RightFoot  0.229992 -0.362844 3.56632
RightToes  -3.11842e-008 1.75238e-005 3.56266e-009
Spine  -1.97935 -0.111925 -0.0429346
Spine1  4.24331 0.0864684 -0.905295
HEad  -4.12259 -1.29245 3.16092
LeftShoulder1  0.407545 0.558376 -6.05345
LeftArm  -45.574 0.787329 -7.84532
LeftForeArm  56.3927 0.386814 2.61777
LeftHand  -0.40898 -0.603811 7.97925
RightShoulder  0.704754 0.726621 9.34848
RightArm  -43.3736 -2.02347 8.37534
RightForeArm  16.9176 5.59443 0.77391
RightHand  0.0776783 3.73569 0.733441
LeftUpLeg  3.72605 0.985388 2.06976
LeftLeg  -2.71252 17.6733 -0.92515
LeftFoot  0.0666291 0.232838 -2.33195
LeftToes  4.78904e-008 1.4679e-008 1.35657e-009
